<?xml version="1.0" standalone="no"?>
<!DOCTYPE svg PUBLIC "-//W3C//DTD SVG 20010904//EN"
 "http://www.w3.org/TR/2001/REC-SVG-20010904/DTD/svg10.dtd">
<svg version="1.0" xmlns="http://www.w3.org/2000/svg"
 width="512.000000pt" height="512.000000pt" viewBox="0 0 512.000000 512.000000"
 preserveAspectRatio="xMidYMid meet">
<metadata>
Created by potrace 1.16, written by Peter Selinger 2001-2019
</metadata>
<g transform="translate(0.000000,512.000000) scale(0.100000,-0.100000)"
fill="#000000" stroke="none">
<path d="M3303 5108 c-43 -21 -52 -61 -64 -299 -6 -123 -14 -354 -18 -514 l-6
-290 -140 -17 c-133 -16 -464 -41 -700 -53 -95 -5 -840 -35 -871 -35 -7 0 -14
39 -18 108 -14 206 -54 365 -116 462 -44 68 -65 85 -111 85 -38 0 -40 1 -50
40 -55 202 -264 338 -448 291 -127 -32 -231 -110 -285 -212 -15 -27 -42 -70
-60 -97 -79 -109 -102 -262 -56 -380 28 -74 104 -153 185 -193 55 -27 69 -29
171 -29 107 0 112 1 187 38 89 44 194 136 235 205 25 45 26 45 33 20 8 -32 33
-338 27 -343 -2 -2 -91 -9 -198 -15 -353 -20 -563 -61 -723 -141 -65 -33 -87
-57 -87 -98 0 -43 6 -52 47 -76 32 -19 33 -19 75 2 78 38 263 58 661 69 l237
7 0 -339 c0 -325 -25 -1219 -35 -1234 -3 -4 -26 -11 -52 -15 -98 -14 -463 -87
-633 -125 -298 -68 -363 -87 -382 -111 -22 -26 -23 -67 -2 -97 19 -28 40 -28
288 -2 268 28 770 70 776 64 2 -3 8 -177 12 -387 9 -519 39 -815 119 -1197 27
-131 37 -157 66 -180 49 -39 153 -16 183 40 16 29 15 80 -4 185 -64 365 -96
802 -96 1313 0 241 1 252 19 252 10 0 182 9 382 20 336 19 1412 69 1416 66 1
-1 37 -745 58 -1236 8 -190 17 -359 20 -377 12 -69 106 -97 161 -49 27 22 28
29 35 142 4 66 13 436 20 824 6 388 13 706 14 707 1 2 183 12 406 23 222 11
539 29 703 40 323 20 333 23 363 81 27 52 7 139 -39 168 -42 26 -518 50 -1079
54 l-356 2 -8 510 c-4 281 -10 616 -14 747 l-6 236 195 7 c303 12 573 -7 795
-55 124 -28 141 -26 181 14 28 28 34 41 34 77 0 37 -5 48 -45 85 -81 78 -232
137 -420 166 -110 16 -452 16 -613 -1 -73 -7 -134 -12 -136 -10 -2 2 -9 121
-15 264 -7 143 -19 363 -26 488 -15 244 -25 285 -71 306 -31 14 -91 13 -121
-1z m-2397 -464 c50 -24 88 -94 88 -159 0 -154 -172 -314 -311 -289 -100 18
-150 78 -139 168 5 44 11 56 45 84 22 18 62 63 91 101 28 38 65 79 83 90 39
25 97 27 143 5z m2314 -1156 c0 -139 7 -468 16 -731 9 -263 14 -480 12 -483
-3 -2 -133 -11 -289 -19 -470 -24 -893 -63 -1314 -120 -103 -14 -189 -25 -191
-25 -8 0 9 1055 21 1279 8 139 16 255 17 257 2 2 205 8 452 14 497 11 664 20
1001 54 127 13 240 24 253 25 l22 1 0 -252z"/>
<path d="M2709 3361 c-63 -43 -118 -95 -188 -184 l-62 -77 -67 58 c-123 107
-223 172 -265 172 -54 0 -106 -63 -92 -112 4 -13 68 -82 143 -155 l136 -131
-27 -34 c-100 -123 -177 -253 -177 -299 0 -56 50 -99 116 -99 32 0 44 8 101
68 36 37 86 93 111 124 l46 57 96 -99 c104 -109 172 -150 247 -150 81 0 131
75 99 150 -16 38 -48 70 -146 147 -36 28 -82 69 -102 90 l-38 39 119 124 c65
69 125 139 134 157 33 62 14 133 -43 167 -42 24 -90 20 -141 -13z"/>
<path d="M4628 1619 c-44 -23 -81 -68 -198 -242 -47 -70 -89 -127 -93 -127 -4
0 -47 26 -95 58 -189 127 -332 197 -378 186 -52 -13 -82 -104 -49 -151 8 -12
66 -57 128 -99 150 -104 257 -185 257 -194 0 -5 -30 -55 -66 -112 -83 -130
-178 -325 -199 -404 -23 -94 -20 -146 11 -183 31 -37 84 -50 117 -28 12 8 57
84 104 178 81 160 211 380 230 386 5 2 43 -26 84 -62 94 -82 176 -125 240
-125 40 0 51 4 73 31 14 17 26 43 26 58 0 73 -88 182 -221 272 l-58 39 86 123
c48 67 91 124 96 126 21 8 89 76 103 102 16 32 18 86 4 123 -23 61 -128 85
-202 45z"/>
<path d="M2466 1486 c-22 -8 -51 -24 -65 -36 -14 -11 -48 -31 -76 -44 -116
-54 -211 -182 -236 -321 -45 -242 77 -461 291 -525 178 -53 387 -4 511 120
146 146 181 362 87 548 -43 85 -147 183 -244 229 -88 42 -201 54 -268 29z
m228 -304 c39 -37 76 -118 76 -170 0 -187 -252 -296 -384 -165 -69 68 -90 186
-49 273 40 84 46 88 158 97 115 10 158 2 199 -35z"/>
<path d="M449 1275 c-15 -8 -35 -31 -45 -52 -15 -31 -24 -37 -44 -35 -74 11
-184 -72 -238 -180 -120 -237 -59 -545 133 -673 81 -54 141 -68 257 -63 88 4
106 9 172 42 136 67 216 182 244 353 14 84 14 102 0 189 -35 212 -160 365
-341 419 -63 19 -104 19 -138 0z m38 -229 c134 -44 209 -150 207 -296 -1 -133
-67 -216 -190 -239 -87 -16 -148 20 -195 116 -19 40 -23 64 -24 148 0 89 3
106 28 160 16 33 42 82 59 108 27 42 32 46 47 34 9 -8 39 -22 68 -31z"/>
</g>
</svg>
